<svg width="100" height="125.00000000000001" xmlns="http://www.w3.org/2000/svg">

 <g>
  <title>background</title>
  <rect fill="none" id="canvas_background" height="402" width="582" y="-1" x="-1"/>
 </g>
 <g>
  <title>Layer 1</title>
  <path fill="#ffffff" id="svg_1" d="m88.204,29.461l-6.772,-1.108c-0.282,1.292 -0.642,2.587 -1.067,3.878l7.194,1.177c1.994,0.326 3.441,2.03 3.441,4.051l0,49.266c0,0.37 -0.129,0.637 -0.42,0.867c-0.212,0.167 -0.418,0.244 -0.651,0.244c-0.091,0 -0.188,-0.012 -0.289,-0.036l-22.64,-5.37l0,-27.2c-0.172,0.214 -0.344,0.43 -0.513,0.638l-3.487,4.288l0,22.249l-26,5.757l0,-54.431l6.385,-0.917c-0.439,-1.277 -0.821,-2.574 -1.128,-3.878l-7.083,1.017l-23.506,-7.554c-1.569,-0.506 -3.238,-0.236 -4.569,0.734c-1.354,0.987 -2.099,2.452 -2.099,4.126l0,47.947c0,3.369 1.94,6.248 5.064,7.513l24.186,9.788c0.013,0.005 0.026,0.007 0.039,0.012c0.08,0.03 0.162,0.053 0.245,0.072c0.036,0.009 0.072,0.021 0.108,0.028c0.118,0.021 0.238,0.034 0.358,0.034c0.144,0 0.289,-0.016 0.432,-0.047l29.552,-6.544l23.732,5.631c0.402,0.096 0.811,0.144 1.212,0.144c1.133,0 2.217,-0.383 3.131,-1.106c1.251,-0.987 1.94,-2.41 1.94,-4.005l0,-49.267c0.001,-3.991 -2.857,-7.355 -6.795,-7.998zm-55.204,58.226l-21.435,-8.675c-1.606,-0.651 -2.565,-2.074 -2.565,-3.806l0,-47.947c0,-0.384 0.144,-0.667 0.454,-0.893c0.204,-0.148 0.408,-0.221 0.624,-0.221c0.115,0 0.238,0.021 0.366,0.062l22.556,7.249l0,54.231z"/>
  <path fill="#ffffff" id="svg_2" d="m61.776,54.037l0,0c-0.603,0 -1.172,-0.271 -1.552,-0.738c-7.076,-8.703 -22.253,-30.224 -10.396,-42.08c3.191,-3.192 7.435,-4.949 11.948,-4.949c4.513,0 8.756,1.757 11.947,4.949c11.858,11.858 -3.32,33.378 -10.396,42.08c-0.379,0.467 -0.949,0.738 -1.551,0.738zm0.001,-43.767c-3.445,0 -6.685,1.341 -9.12,3.777c-8.95,8.95 3.131,26.994 9.119,34.767c5.989,-7.773 18.07,-25.815 9.12,-34.767c-2.435,-2.436 -5.674,-3.777 -9.119,-3.777zm-0.001,21.798c-2.425,0 -4.703,-0.944 -6.417,-2.658c-3.538,-3.538 -3.538,-9.295 0,-12.833c1.714,-1.714 3.992,-2.658 6.417,-2.658s4.703,0.944 6.417,2.658c1.715,1.714 2.658,3.993 2.658,6.417c0,2.424 -0.943,4.703 -2.658,6.417c-1.714,1.713 -3.992,2.657 -6.417,2.657zm0,-14.15c-1.355,0 -2.63,0.528 -3.589,1.486c-1.979,1.979 -1.979,5.199 0,7.177c0.959,0.958 2.233,1.486 3.589,1.486s2.63,-0.528 3.589,-1.486c0.959,-0.959 1.486,-2.233 1.486,-3.588s-0.527,-2.63 -1.486,-3.588c-0.959,-0.959 -2.233,-1.487 -3.589,-1.487z"/>
 </g>
</svg>